<svg xmlns="http://www.w3.org/2000/svg" version="1.1" viewBox="-5.0 -10.0 110.0 135.0">
 <path d="m26.922 49.148c0.21094-4.3398 1.3594-8.4297 3.2305-12.078l-8.6992-5.0312c-2.7188 5.1406-4.3398 10.949-4.5703 17.109zm45.289 15.469 3.2812 6.6602 7.3516 1.0586c0.82031 0.12109 1.3906 0.87891 1.2695 1.6992-0.050781 0.35938-0.23047 0.67188-0.48047 0.89844l-5.2812 5.1406 1.2617 7.3203c0.14062 0.82031-0.41016 1.5898-1.2188 1.7305-0.35938 0.058594-0.71094-0.011719-1-0.17969l-6.5195-3.4297-6.5781 3.4609c-0.73047 0.37891-1.6406 0.10156-2.0195-0.62891-0.16016-0.30078-0.19922-0.62891-0.14844-0.94922l1.2617-7.3203-5.3203-5.1797c-0.58984-0.57813-0.60937-1.5312-0.03125-2.1211 0.23828-0.23828 0.53906-0.39062 0.85938-0.42969l7.3516-1.0703 3.2812-6.6602c0.37109-0.73828 1.2695-1.0508 2.0117-0.67969 0.30859 0.14844 0.53906 0.39062 0.67969 0.67969zm-54.09 0 3.2812 6.6602 7.3516 1.0586c0.82031 0.12109 1.3906 0.87891 1.2695 1.6992-0.050782 0.35938-0.23047 0.67188-0.48047 0.89844l-5.2695 5.1406 1.25 7.3203c0.14062 0.82031-0.41016 1.5898-1.2188 1.7305-0.35938 0.058594-0.71094-0.011719-1-0.17969l-6.5195-3.4297-6.5781 3.4609c-0.73047 0.37891-1.6289 0.10156-2.0195-0.62891-0.16016-0.30078-0.19922-0.62891-0.14844-0.94922l1.2617-7.3203-5.3203-5.1797c-0.58984-0.57813-0.60938-1.5312-0.03125-2.1211 0.23828-0.23828 0.53906-0.39062 0.85938-0.42969l7.3516-1.0703 3.2812-6.6602c0.37109-0.73828 1.2695-1.0508 2.0117-0.67969 0.30859 0.14844 0.53906 0.39062 0.67969 0.67969zm27.039-12.41 4.1289 8.3711 9.2305 1.3398c0.82031 0.10938 1.3906 0.87109 1.2695 1.6914-0.050781 0.35938-0.23047 0.67969-0.48047 0.89844l-6.6406 6.4688 1.5781 9.1992c0.14062 0.82031-0.41016 1.5898-1.2188 1.7305-0.35938 0.058594-0.71094-0.011719-1-0.17969l-8.2109-4.3086-8.2617 4.3398c-0.73047 0.37891-1.6289 0.10156-2.0195-0.62891-0.16016-0.30078-0.19922-0.64062-0.14844-0.94922l1.5781-9.1992-6.6797-6.5117c-0.58984-0.57031-0.60938-1.5195-0.03125-2.1094 0.23828-0.25 0.53906-0.39844 0.85938-0.44141l9.2305-1.3398 4.1289-8.3711c0.35938-0.73828 1.2617-1.0391 2-0.67969 0.30859 0.14844 0.53906 0.39844 0.67969 0.67969zm11.52-9.5781c0.46094 0 0.94141 0.050782 1.4219 0.14062 0.26172 0.039063 0.51953 0.10156 0.76172 0.17188l13.551-6.2383c0.75-0.35156 1.6406-0.019531 1.9805 0.73047 0.26953 0.57812 0.14062 1.2305-0.28125 1.6602l-9.4492 11.391v0.14062c0 2.1914-0.89062 4.1914-2.3398 5.6406s-3.4492 2.3398-5.6406 2.3398c-2.1992 0-4.1992-0.89062-5.6406-2.3398-1.4492-1.4414-2.3398-3.4414-2.3398-5.6406s0.89062-4.1914 2.3398-5.6484c1.4492-1.4414 3.4492-2.3398 5.6406-2.3398zm1.5-31.781v10.039c4.3398 0.21875 8.4297 1.3594 12.09 3.2383l5.0195-8.6992c-5.1406-2.7188-10.941-4.3516-17.109-4.5781zm-3 10.039v-10.039c-6.1719 0.23047-11.969 1.8594-17.109 4.5781l5.0195 8.6992c3.6602-1.8789 7.75-3.0195 12.09-3.2383zm22.699-3.9609-5.0195 8.6992c1.7617 1.1406 3.3984 2.4688 4.8906 3.9492 1.4805 1.4883 2.8086 3.1289 3.9609 4.8984l8.6992-5.0312c-1.6016-2.5312-3.4609-4.8594-5.5586-6.9609-2.1016-2.1094-4.4414-3.9688-6.9688-5.5586zm-46.23 17.551c1.1484-1.7695 2.4805-3.4102 3.9609-4.8906 1.4883-1.4883 3.1289-2.8203 4.8984-3.9609l-5.0312-8.7109c-2.5312 1.6016-4.8594 3.4609-6.9609 5.5703-2.1094 2.1016-3.9688 4.4414-5.5703 6.9609l8.6992 5.0312zm51.551 2.5898c1.8789 3.6484 3.0195 7.7383 3.2383 12.078h10.039c-0.23047-6.1602-1.8516-11.969-4.5781-17.109zm3.2383 15.078c-0.10156 2.1406-0.44141 4.2188-0.96875 6.2188-0.55078 2.0508-1.3203 4.0195-2.2695 5.8711l8.7109 5.0312c1.3789-2.6016 2.4688-5.3789 3.25-8.2891 0.76172-2.8281 1.2109-5.7812 1.3281-8.8281h-10.051z"/>
<text x="0.0" y="117.5" font-size="5.0" font-weight="bold" font-family="Arbeit Regular, Helvetica, Arial-Unicode, Arial, Sans-serif" fill="#000000">Created by Yuniarti Pahlevie</text><text x="0.0" y="122.5" font-size="5.0" font-weight="bold" font-family="Arbeit Regular, Helvetica, Arial-Unicode, Arial, Sans-serif" fill="#000000">from Noun Project</text></svg>